<svg width="161" height="100" viewBox="0 0 151 50" fill="currentColor" xmlns="http://www.w3.org/2000/svg" class="text-darkForeground"><path d="M31.53 3.37c-2.835 2.879-3.878 7.083-3.034 11.452a2.097 2.097 0 0 0 1.642 1.668c4.3.857 8.44-.202 11.275-3.081 2.834-2.88 3.877-7.085 3.033-11.453A2.096 2.096 0 0 0 42.805.289 14.65 14.65 0 0 0 39.94 0c-3.232 0-6.214 1.139-8.41 3.37Zm.862 9.162c-.147-2.462.58-4.648 2.08-6.173 1.502-1.525 3.654-2.262 6.078-2.113.148 2.462-.579 4.648-2.08 6.173-1.374 1.396-3.294 2.133-5.469 2.133-.2 0-.404-.007-.609-.02ZM.452 24.83c0 12.419 9.835 22.494 21.974 22.494 12.14 0 21.974-10.075 21.974-22.494 0-2.49-.395-4.884-1.125-7.123-3.828 3.123-8.893 4.183-13.984 3.168-2.585-.515-4.605-2.567-5.113-5.192-.896-4.645-.146-9.267 2.242-12.977a21.607 21.607 0 0 0-3.994-.37C10.286 2.336.453 12.41.453 24.83ZM28.419 31a2.057 2.057 0 0 1 2.943-.011c.815.822.82 2.16.011 2.99-2.355 2.41-5.546 3.791-8.946 3.791-3.39 0-6.572-1.373-8.926-3.77a2.138 2.138 0 0 1 .005-2.99 2.058 2.058 0 0 1 2.943.004c1.581 1.612 3.707 2.53 5.978 2.53 2.278 0 4.41-.924 5.992-2.543Zm57.448 4.705h4.702V4.901h-4.702v30.804Zm51.023-17.374c-1.326-2.215-3.579-3.45-6.283-3.45-2.488 0-4.341.913-5.511 2.55v-2.197h-4.47v20.471h4.701V24.041c0-2.743 1.752-4.697 4.316-4.697 2.278 0 3.777 1.795 3.777 4.658v11.703h4.739V23.297c.271-2.381 1.818-3.953 4.086-3.953 2.484 0 3.93 1.72 3.93 4.658v11.703h4.74V23.248c-.036-5.018-3.068-8.366-7.592-8.366-2.852 0-5.106 1.292-6.433 3.45Zm-72.294-.718v-2.379h-4.47v30.452h4.701v-12c1.282 1.483 3.494 2.41 6.089 2.41 5.748 0 9.71-4.22 9.71-10.607 0-6.362-3.975-10.607-9.71-10.607-2.735 0-5.04 1.043-6.32 2.73Zm.231 8.425V24.98c0-3.725 2.11-5.91 5.395-5.91 3.391 0 5.626 2.418 5.626 6.42 0 4.009-2.244 6.458-5.626 6.458-3.27 0-5.395-2.211-5.395-5.91Zm44.624-10.804v11.664c0 2.69-1.641 4.697-4.085 4.697-2.46 0-3.815-1.612-3.815-4.462V15.234h-4.701V27.8c0 5.01 2.902 8.297 7.437 8.297 2.478 0 4.358-.981 5.395-2.497v2.106h4.47v-20.47h-4.701Z" fill="currentColor"></path></svg>