<svg xmlns="http://www.w3.org/2000/svg" fill="none" height="40" style="padding-top:10px;" width="185">
  <path d="M4.169 18.656c-1.724 0-3.087-.465-4.169-.97v-2.791h.093c.99 1.275 2.432 2.22 4.316 2.22 1.416 0 2.525-.652 2.525-1.981 0-1.064-.735-1.529-2.03-2.114l-1.898-.823C1.202 11.399.187 10.23.187 8.7c0-2.366 1.87-3.788 4.596-3.788 1.35 0 2.632.346 3.514.784V8.17h-.093C7.349 7.027 6.093 6.455 4.69 6.455c-1.43 0-2.365.625-2.365 1.728S3.1 9.79 4.169 10.256l1.964.85c1.79.798 2.952 1.795 2.952 3.616 0 2.498-2.15 3.934-4.916 3.934ZM10.342 11.811c0-4.519 3.514-6.898 7.189-6.898 1.323 0 2.619.306 3.888.89v2.54h-.094c-.881-1.104-2.137-1.888-3.861-1.888-2.833 0-4.61 2.14-4.61 5.17 0 3.017 1.764 5.263 4.97 5.263 1.23 0 2.526-.399 3.715-1.263l.454 1.037c-.948 1.103-2.552 1.994-4.93 1.994-3.647 0-6.72-2.645-6.72-6.845ZM22.475 11.785c.014-4.027 2.713-6.872 6.708-6.872s6.694 2.845 6.707 6.872c-.013 4.027-2.712 6.87-6.707 6.87-3.995 0-6.694-2.843-6.708-6.87Zm10.903 0c0-2.964-1.416-5.33-4.195-5.33-2.78 0-4.196 2.366-4.196 5.33 0 2.963 1.417 5.33 4.196 5.33s4.195-2.367 4.195-5.33ZM36.399 5.14h18.518v2.75h-.093c-.708-.903-1.737-1.103-3.22-1.156l-.869-.026v8.97c0 .997.067 1.994.548 2.645v.107h-3.42v-.107c.48-.65.547-1.648.547-2.644V6.668l-2.752-.014-2.752.014v9.01c0 .997.066 1.994.547 2.645v.107h-3.42v-.107c.481-.65.548-1.648.548-2.644V6.708l-.869.026c-1.483.053-2.512.253-3.22 1.156H36.4V5.14ZM56.91 15.679V7.89c0-.996-.067-1.993-.548-2.644v-.107h3.42v.107c-.48.65-.547 1.648-.547 2.644v7.789c0 .996.066 1.993.547 2.644v.107h-3.42v-.107c.481-.65.548-1.648.548-2.644ZM65.876 18.656c-1.724 0-3.087-.465-4.169-.97v-2.791h.094c.988 1.275 2.431 2.22 4.315 2.22 1.416 0 2.525-.652 2.525-1.981 0-1.064-.734-1.529-2.03-2.114l-1.898-.823c-1.803-.798-2.819-1.967-2.819-3.496 0-2.366 1.87-3.788 4.596-3.788 1.35 0 2.633.346 3.514.784V8.17h-.093c-.855-1.142-2.111-1.714-3.514-1.714-1.43 0-2.365.625-2.365 1.728s.775 1.608 1.844 2.073l1.964.85c1.79.798 2.953 1.795 2.953 3.616 0 2.498-2.152 3.934-4.917 3.934ZM81.683 15.679v-3.363h-6.467v3.363c0 .996.067 1.993.548 2.644v.107h-3.42v-.107c.48-.65.547-1.648.547-2.644V7.89c0-.996-.067-1.993-.547-2.644v-.107h3.42v.107c-.481.65-.548 1.648-.548 2.644v2.911h6.467v-2.91c0-.997-.067-1.994-.548-2.645v-.107h3.42v.107c-.48.65-.547 1.648-.547 2.644v7.789c0 .996.067 1.993.548 2.644v.107h-3.42v-.107c.48-.65.547-1.648.547-2.644ZM105.509 5.246v-.107h3.487v.107a1.748 1.748 0 0 0-.308.996c0 .346.067.745.455 1.808l2.712 7.536h.053l1.497-3.815-1.51-3.92c-.454-1.197-.788-1.954-1.389-2.605v-.107h3.433v.107c-.427.93-.093 1.674.187 2.565l.348 1.116.214.744h.013l.214-.744.347-1.116c.281-.89.615-1.635.187-2.565v-.107h3.234v.107c-.602.65-.922 1.408-1.39 2.605l-1.416 3.628 1.643 4.107h.054l2.685-7.536c.374-1.063.454-1.462.454-1.808 0-.358-.093-.664-.307-.996v-.107h3.287v.107c-.588.65-.895 1.408-1.336 2.605l-3.835 10.579h-2.071l-1.363-3.615-.467-1.236h-.014l-.467 1.236-1.363 3.615h-2.098l-3.834-10.58c-.441-1.196-.749-1.953-1.336-2.604ZM125.338 15.679V7.89c0-.996-.067-1.993-.548-2.644v-.107h3.421v.107c-.481.65-.548 1.648-.548 2.644v7.789c0 .996.067 1.993.548 2.644v.107h-3.421v-.107c.481-.65.548-1.648.548-2.644ZM130.763 15.679V7.89c0-.996-.067-1.993-.548-2.644v-.107h5.011c4.222 0 7.242 2.472 7.242 6.646 0 4.266-3.06 6.645-7.242 6.645h-5.011v-.107c.481-.65.548-1.648.548-2.644Zm9.206-3.921c0-3.256-1.55-5.144-5.371-5.144h-1.51v10.314h1.51c3.821 0 5.371-1.847 5.371-5.17ZM144.019 11.785c.013-4.027 2.712-6.872 6.707-6.872 3.995 0 6.694 2.845 6.707 6.872-.013 4.027-2.712 6.87-6.707 6.87-3.995 0-6.694-2.843-6.707-6.87Zm10.902 0c0-2.964-1.416-5.33-4.195-5.33-2.779 0-4.195 2.366-4.195 5.33 0 2.963 1.416 5.33 4.195 5.33 2.779 0 4.195-2.367 4.195-5.33ZM157.314 5.246v-.107h3.487v.107a1.754 1.754 0 0 0-.307.996c0 .346.067.745.454 1.808l2.713 7.536h.053l1.497-3.815-1.51-3.92c-.454-1.197-.789-1.954-1.39-2.605v-.107h3.434v.107c-.428.93-.093 1.674.187 2.565l.347 1.116.214.744h.014l.213-.744.348-1.116c.28-.89.614-1.635.187-2.565v-.107h3.233v.107c-.601.65-.922 1.408-1.389 2.605l-1.417 3.628 1.644 4.107h.053l2.686-7.536c.374-1.063.454-1.462.454-1.808 0-.358-.093-.664-.307-.996v-.107h3.287v.107c-.588.65-.896 1.408-1.336 2.605l-3.835 10.579h-2.071l-1.363-3.615-.468-1.236h-.013l-.468 1.236-1.362 3.615h-2.098L158.65 7.85c-.441-1.196-.748-1.953-1.336-2.604ZM180.083 18.656c-1.723 0-3.086-.465-4.168-.97v-2.791h.093c.989 1.275 2.432 2.22 4.316 2.22 1.416 0 2.525-.652 2.525-1.981 0-1.064-.735-1.529-2.031-2.114l-1.897-.823c-1.804-.798-2.819-1.967-2.819-3.496 0-2.366 1.87-3.788 4.596-3.788 1.349 0 2.632.346 3.514.784V8.17h-.094c-.855-1.142-2.111-1.714-3.514-1.714-1.429 0-2.365.625-2.365 1.728s.775 1.608 1.844 2.073l1.964.85c1.791.798 2.953 1.795 2.953 3.616 0 2.498-2.151 3.934-4.917 3.934Z" style="fill:#000000!important;"></path>
  <path d="M100.355 19.677c-.009-1.648-.624-2.64-.628-3.488-.003-.545.153-1.007.939-2.078l-.012-.011a4.732 4.732 0 0 1-.935.671c.042-1.321.008-3.079-.146-4.545h-.012c-.294 2.075-.736 3.726-1.35 5.183-1.739.628-3.616.408-5.02-.13.86-.878 1.633-2.118 2.052-3.587h-.012c-.652 1.106-1.537 1.947-2.486 2.353-1.258-.479-2.188-1.237-2.19-1.82-.004-.52.788-.561.785-1.107-.003-.678-1.29-1.944-3.926-2.706 3.064-3.628 8.222-.613 9.379-3.14h-.013c-.194.182-.473.317-.741.318-.56.003-.825-.47-.898-.837 1.884-.04 2.3-1.255 3.202-1.26.621-.003 1.04.65 1.295.648.134 0 .182-.207.13-.68.733.251 1.153 1.243 1.156 1.897.004.716-.177 1.068-.171 2.147.007 1.321.331 2.738 1.2 5.642-.206.22-.522.451-.789.659-.052 1.673-.09 3.528.136 4.896.063.412.284.605.797.869.525.264.598.251.599.336 0 .06-.097.134-.316.135l-1.853.01c-.207.001-.171-.169-.172-.375Zm-6.73-16.595c.244.156.464.228.683.227.914-.005 1.176-1.195 2.469-.947V2.35c-.525-.215-.698-.517-.59-1.015.208.18.403.24.573.24.707-.004 1.384-1.099 2.334-1.104.451-.002.818.165 1.003.65.074.193.051.375.113.544.037.085.098.17.184.278.037.048-.061.097-.133.134-.011.279-.01.473-.071.546-.072.085-.328.11-.694.137.077.593.103.872-.043.873-.208.001-.515-.543-1.21-.54-.828.005-1.663 1.161-3.052 1.169-.731.003-1.44-.356-1.566-1.18Zm.652 17.16c0-.157.181-.303.315-.437.727-.732.722-1.713.828-2.284.166-.97.81-1.3 1.662-1.415-.118.62-.371 1.239-.648 1.786-.362.717-.384 1.19-.393 1.784 0 .145-.06.17-.194.243-.158.086-.206.171-.266.34-.048.147-.108.208-.34.209l-.61.003c-.219.001-.353-.07-.354-.228Z" style="fill:#FF222F!important"></path>
</svg>